HIERARCHY
ROOT Hips
{
	OFFSET 0.00000 0.00000 0.00000
	CHANNELS 6 Xposition Yposition Zposition Zrotation Yrotation Xrotation 
	JOINT LHipJoint
	{
		OFFSET 0 0 0
		CHANNELS 3 Zrotation Yrotation Xrotation
		JOINT LeftUpLeg
		{
			OFFSET 3.13874 -1.57224 1.49786
			CHANNELS 3 Zrotation Yrotation Xrotation
			JOINT LeftLeg
			{
				OFFSET 2.10955 -5.79594 0.00000
				CHANNELS 3 Zrotation Yrotation Xrotation
				JOINT LeftFoot
				{
					OFFSET 2.41843 -6.64458 0.00000
					CHANNELS 3 Zrotation Yrotation Xrotation
					JOINT LeftToeBase
					{
						OFFSET 0.04713 -0.12948 1.66229
						CHANNELS 3 Zrotation Yrotation Xrotation
						End Site
						{
							OFFSET 0.00000 -0.00000 0.85167
						}
					}
				}
			}
		}
	}
	JOINT RHipJoint
	{
		OFFSET 0 0 0
		CHANNELS 3 Zrotation Yrotation Xrotation
		JOINT RightUpLeg
		{
			OFFSET -3.13988 -1.57224 1.49786
			CHANNELS 3 Zrotation Yrotation Xrotation
			JOINT RightLeg
			{
				OFFSET -2.15006 -5.90725 0.00000
				CHANNELS 3 Zrotation Yrotation Xrotation
				JOINT RightFoot
				{
					OFFSET -2.34496 -6.44273 0.00000
					CHANNELS 3 Zrotation Yrotation Xrotation
					JOINT RightToeBase
					{
						OFFSET -0.08699 -0.23900 1.55223
						CHANNELS 3 Zrotation Yrotation Xrotation
						End Site
						{
							OFFSET -0.00000 -0.00000 0.80281
						}
					}
				}
			}
		}
	}
	JOINT LowerBack
	{
		OFFSET 0 0 0
		CHANNELS 3 Zrotation Yrotation Xrotation
		JOINT Spine
		{
			OFFSET 0.01292 1.96517 -0.16495
			CHANNELS 3 Zrotation Yrotation Xrotation
			JOINT Spine1
			{
				OFFSET 0.02122 1.88666 0.19706
				CHANNELS 3 Zrotation Yrotation Xrotation
				JOINT Neck
				{
					OFFSET 0 0 0
					CHANNELS 3 Zrotation Yrotation Xrotation
					JOINT Neck1
					{
						OFFSET -0.01683 1.81591 0.07903
						CHANNELS 3 Zrotation Yrotation Xrotation
						JOINT Head
						{
							OFFSET 0.00815 1.74013 -0.47700
							CHANNELS 3 Zrotation Yrotation Xrotation
							End Site
							{
								OFFSET -0.00204 1.83225 -0.16933
							}
						}
					}
				}
				JOINT LeftShoulder
				{
					OFFSET 0 0 0
					CHANNELS 3 Zrotation Yrotation Xrotation
					JOINT LeftArm
					{
						OFFSET 3.38482 1.41533 0.19802
						CHANNELS 3 Zrotation Yrotation Xrotation
						JOINT LeftForeArm
						{
							OFFSET 4.32712 -0.00000 0.00000
							CHANNELS 3 Zrotation Yrotation Xrotation
							JOINT LeftHand
							{
								OFFSET 3.28587 -0.00000 -0.00000
								CHANNELS 3 Zrotation Yrotation Xrotation
								JOINT LeftFingerBase
								{
									OFFSET 0 0 0
									CHANNELS 3 Zrotation Yrotation Xrotation
									JOINT LeftHandIndex1
									{
										OFFSET 0.43316 -0.00000 -0.00000
										CHANNELS 3 Zrotation Yrotation Xrotation
										End Site
										{
											OFFSET 0.34922 -0.00000 -0.00000
										}
									}
								}
								JOINT LThumb
								{
									OFFSET 0 0 0
									CHANNELS 3 Zrotation Yrotation Xrotation
									End Site
									{
										OFFSET 0.35456 -0.00000 0.35456
									}
								}
							}
						}
					}
				}
				JOINT RightShoulder
				{
					OFFSET 0 0 0
					CHANNELS 3 Zrotation Yrotation Xrotation
					JOINT RightArm
					{
						OFFSET -3.09725 1.62858 -0.14144
						CHANNELS 3 Zrotation Yrotation Xrotation
						JOINT RightForeArm
						{
							OFFSET -4.29104 -0.00000 0.00000
							CHANNELS 3 Zrotation Yrotation Xrotation
							JOINT RightHand
							{
								OFFSET -3.22720 -0.00000 -0.00000
								CHANNELS 3 Zrotation Yrotation Xrotation
								JOINT RightFingerBase
								{
									OFFSET 0 0 0
									CHANNELS 3 Zrotation Yrotation Xrotation
									JOINT RightHandIndex1
									{
										OFFSET -0.54362 -0.00000 -0.00000
										CHANNELS 3 Zrotation Yrotation Xrotation
										End Site
										{
											OFFSET -0.43828 -0.00000 -0.00000
										}
									}
								}
								JOINT RThumb
								{
									OFFSET 0 0 0
									CHANNELS 3 Zrotation Yrotation Xrotation
									End Site
									{
										OFFSET -0.44497 -0.00000 0.44497
									}
								}
							}
						}
					}
				}
			}
		}
	}
}
MOTION
Frames: 5
Frame Time: .0083333
-9.4544 15.7963 1.1921 0 0 0 0 0 0 -21 0 0 0 0 0 0 0 0 0 0 0 0 0 0 21 0 0 0 0 0 0 0 0 0 0 0 0 0 0 0 0 0 0 0 0 0 0 -16 0 0 21 0 0 11 0 0 0 -8 0 0 0 0 0 0 0 0 0 0 0 0 0 0 0 0 0 0 0 0 8 0 0 0 0 0 0 0 0 0 0 0 0 0 0 0 0 0
-9.4544 15.7963 1.1921 -113.0160 82.4770 -104.2660 0.0000 0.0000 0.0000 -15.4267 -6.7553 -29.7937 10.8311 17.8515 62.2320 -0.0377 10.2568 -13.9901 12.5548 -18.6155 -67.7368 0.0000 0.0000 0.0000 41.7186 12.5791 2.1532 -0.0080 0.5779 -1.5879 -1.1096 -8.9065 -24.9814 -0.0250 -1.0201 2.8041 0.3638 0.3407 10.5082 4.5042 1.7973 -11.6550 4.5498 1.4620 -19.6979 -1.5681 -2.4968 -15.1692 -4.6013 -0.4123 34.5155 -1.5654 -0.5932 14.4049 0.0000 0.0000 0.0000 -89.5272 26.3785 3.9308 20.1700 -30.8466 -5.6182 -0.0000 -0.0000 11.0717 31.1883 29.6236 16.6583 -7.1250 0.0000 -0.0000 0.2905 63.5912 0.1310 0.0000 0.0000 0.0000 64.7370 -18.1502 53.7991 -23.3826 34.5045 -7.3539 0.0000 -0.0000 -9.4007 -20.2649 -16.6083 6.0242 7.1250 -0.0000 -0.0000 7.2568 -47.4853 -0.4473
-9.2328 15.7861 1.1938 -114.7970 82.6758 -106.1490 0.0000 0.0000 0.0000 -15.6193 -8.5888 -31.7361 10.2150 17.5290 60.2046 0.2873 8.3234 -16.3760 12.3699 -18.5427 -67.1565 0.0000 0.0000 0.0000 41.7557 12.0847 3.7552 -0.0224 0.9667 -2.6573 -1.1339 -9.1717 -25.3769 -0.0277 -1.0744 2.9534 0.1951 0.3646 10.5344 4.4501 1.7577 -11.4538 4.5847 1.4452 -19.4429 -1.5898 -2.4670 -15.2683 -4.8141 -0.2707 34.5335 -1.6275 -0.5643 14.4410 0.0000 0.0000 0.0000 -89.8628 26.2793 4.0820 20.4003 -31.1216 -5.7368 -0.0000 -0.0000 11.1758 30.8085 29.9737 16.5901 -7.1250 0.0000 -0.0000 -0.3515 63.8608 -0.1607 0.0000 0.0000 0.0000 64.6633 -16.8074 54.3650 -23.2055 34.3127 -7.2538 0.0000 -0.0000 -9.0367 -20.1885 -16.5085 5.9649 7.1250 -0.0000 -0.0000 7.3039 -47.3707 -0.4295
-8.9877 15.7645 1.1855 -117.7790 83.0732 -109.3230 0.0000 0.0000 0.0000 -16.2157 -10.4938 -32.9069 9.2606 16.9725 56.9870 0.3657 8.2257 -17.2622 12.5570 -18.6163 -67.7437 0.0000 0.0000 0.0000 41.4348 10.9225 5.3739 -0.0477 1.4094 -3.8761 -1.1063 -9.3910 -25.3330 -0.0076 -0.5643 1.5506 -0.0143 0.3946 10.2304 4.2487 1.6654 -11.1170 4.4728 1.3775 -18.7684 -1.1157 -2.3704 -15.3759 -5.3686 -0.0967 34.2963 -1.9056 -0.5083 14.3564 -0.0000 0.0000 0.0000 -89.9891 26.0696 4.7013 20.5563 -31.3068 -5.8177 -0.0000 -0.0000 10.9681 30.2787 29.5002 16.0403 -7.1250 0.0000 -0.0000 -0.8110 63.2089 -0.3584 -0.0000 0.0000 0.0000 64.7163 -15.4542 54.7986 -23.0893 34.1864 -7.1884 0.0000 -0.0000 -8.6422 -20.1067 -16.2523 5.8498 7.1250 -0.0000 -0.0000 7.3173 -47.0926 -0.3798
-8.7568 15.7466 1.1825 -117.1970 82.8490 -108.8100 0.0000 0.0000 0.0000 -15.6306 -12.1800 -34.3565 8.2281 16.2845 53.3803 0.4291 8.4770 -18.2550 12.6782 -18.6629 -68.1229 0.0000 0.0000 0.0000 41.8925 10.2341 6.6113 -0.0669 1.6682 -4.5895 -1.0954 -9.5960 -25.4105 -0.0005 -0.1382 0.3798 0.3540 0.4210 10.0198 4.3097 1.7449 -10.8276 4.3009 1.3498 -18.2418 -1.1310 -2.2466 -15.6037 -5.5527 0.1373 34.0598 -1.9381 -0.4436 14.3105 0.0000 -0.0000 0.0000 -90.2609 25.6559 4.9885 20.4936 -31.2325 -5.7851 -0.0000 -0.0000 10.8983 30.0154 28.4296 15.3781 -7.1250 0.0000 -0.0000 -0.6794 61.9926 -0.2808 0.0000 -0.0000 0.0000 64.6439 -14.1097 55.4471 -23.0631 34.1577 -7.1737 0.0000 -0.0000 -8.6769 -19.6265 -16.4471 5.7654 7.1250 -0.0000 -0.0000 7.8170 -47.2287 -0.4324
